<svg xmlns="http://www.w3.org/2000/svg" width="53.735" height="30.148" viewBox="0 0 53.735 30.148">
  <defs>
    <style>
      .cls-1 {
        fill: #d3d3d3;
      }

      .cls-2 {
        fill: #818181;
      }

      .cls-3, .cls-4 {
        fill: none;
        stroke-width: 5px;
      }

      .cls-3 {
        stroke: #818181;
      }

      .cls-4 {
        stroke: #d3d3d3;
      }
    </style>
  </defs>
  <g id="Group_76" data-name="Group 76" transform="translate(-373.971 -1019.615)">
    <path id="Path_118" data-name="Path 118" class="cls-1" d="M5.666,0l5.666,9.8L5.666,7.477,0,9.8,2.938,4.72l.614-1.062.672-1.163Z" transform="translate(427.707 1019.615) rotate(90)"/>
    <path id="Path_119" data-name="Path 119" class="cls-2" d="M5.666,0l5.666,9.8L5.666,7.477,0,9.8,2.938,4.72l.614-1.062.672-1.163Z" transform="translate(427.707 1038.431) rotate(90)"/>
    <path id="Path_116" data-name="Path 116" class="cls-3" d="M2480,8515.89s4.789-.054,13.123,0,10.9,18.521,19.334,18.777,14.167,0,14.167,0" transform="translate(-2106.001 -7490.678)"/>
    <path id="Path_117" data-name="Path 117" class="cls-4" d="M2480,8534.756s4.9.054,13.434,0,11.159-18.521,19.792-18.777,14.5,0,14.5,0" transform="translate(-2106 -7490.677)"/>
  </g>
</svg>
