<svg xmlns="http://www.w3.org/2000/svg" width="200"  viewBox="0 0 1957 1048">
  <g id="Group_25" data-name="Group 25" transform="translate(-113 -1486)">
    <ellipse id="Ellipse_5" data-name="Ellipse 5" cx="514.5" cy="524" rx="514.5" ry="524" transform="translate(113 1486)" fill="#d7e4f0"/>
    <path id="Path_58" data-name="Path 58" d="M262.232,74.923c25.115,0,51.849,10.515,78.55,26.778C369.432,119.148,516.5-34.081,516.5-34.081L493.181,248.686s23.323,80.2,23.323,125.287c0,62.6-75.939,87.9-104.3,136.624-7.167,12.314-15.99,60.047-50.741,80.789s-42.289,22.335-88.263,2.179c-91.615,36.2-103.695,3.948-148.637-82.968C101.506,466.01,7.96,430.789,7.96,373.973c0-48.227,27.259-134.853,27.259-134.853L-3.621-34.081S106.418,77.229,157.013,102.564c1.818.912,18.073,36.988,18.073,36.988l9.683,5.048s-4.324,7.463-3.183,10.129l10.863,25.365-2.729,26.595,25.121,60.149-9.591-45.986,10.907-25.287,8.086-26.935-14.083-13.9,5.337-11.051-.657-28.207s-23.683-18.581-22.392-19.3C214.972,83.621,239.348,74.923,262.232,74.923Z" transform="translate(371.53 1690.573)" fill="#fff"/>
    <path id="Path_59" data-name="Path 59" d="M108.663,96.394c28.728,0,48.417-35.6,83.739-45.344s57.549,6.356,57.549,6.356-30.077-34.6-34.2-37.987C202.063,8.075,139.891,8.987,108.663,8.987,70.2,8.987,0,0,0,0S70.2,96.394,108.663,96.394Z" transform="translate(455.543 1941.634) rotate(42)" fill="#fa2e6a"/>
    <path id="Path_60" data-name="Path 60" d="M56.149,57.5c25.3,0,60.75-27.992,60.75-41.908S81.451,0,56.149,0,0,1.681,0,15.6,30.848,57.5,56.149,57.5Z" transform="translate(479.649 1992.698) rotate(42)" fill="#fff"/>
    <path id="Path_61" data-name="Path 61" d="M108.663,0C137.391,0,157.08,35.6,192.4,45.345s57.549-6.356,57.549-6.356-30.077,34.6-34.2,37.988c-13.683,11.343-75.855,10.432-107.083,10.432C70.2,87.407,0,96.394,0,96.394S70.2,0,108.663,0Z" transform="translate(881.171 2013.269) rotate(138)" fill="#fa2e6a"/>
    <path id="Path_62" data-name="Path 62" d="M56.149,0c25.3,0,60.75,27.993,60.75,41.908S81.451,57.5,56.149,57.5,0,55.824,0,41.908,30.848,0,56.149,0Z" transform="translate(831.041 2035.433) rotate(138)" fill="#fff"/>
    <path id="Path_63" data-name="Path 63" d="M25.324,0,50.649,18.418S39.311,36.836,25.324,36.836,0,18.418,0,18.418Z" transform="translate(617.986 2234.622)" fill="#fa2e6a"/>
    <path id="Path_64" data-name="Path 64" d="M33.583,53.4c8.076,30.94,33.583,31.5,33.583,70.365s-37.816,97.331-37.816,97.331S0,162.622,0,123.761C0,109.926,34.864,0,34.864,0S25.508,22.456,33.583,53.4Z" transform="translate(814.894 1925.263) rotate(-160)" fill="#fa2e6a"/>
    <path id="Path_65" data-name="Path 65" d="M33.583,167.7c8.076-30.94,33.583-31.5,33.583-70.365S29.351,0,29.351,0,0,58.47,0,97.331c0,13.835,34.864,123.761,34.864,123.761S25.508,198.636,33.583,167.7Z" transform="translate(374.369 1733.495) rotate(-20)" fill="#fa2e6a"/>
    <text id="Nomad_Fox" data-name="Nomad 
Fox" transform="translate(1155 1945)" fill="#1d1d1d" font-size="250" font-family="AvenirNext-UltraLight, Avenir Next" font-weight="100"><tspan x="0" y="0">Nomad </tspan><tspan x="0" y="341">Fox</tspan></text>
  </g>
</svg>
