<svg xmlns="http://www.w3.org/2000/svg" width="40" height="40" viewBox="0 0 137.077 115.156">
  <g id="Group_39" data-name="Group 39" transform="translate(-6493 -804.735)">
    <path id="Path_71" data-name="Path 71" d="M0,0H10.427S20.561,15.051,20.561,31.148s-10.134,33.24-10.134,33.24H0s10.427-17.143,10.427-33.24S0,0,0,0Z" transform="translate(6569.963 830.255)" fill="#ffdbdb"/>
    <path id="Path_72" data-name="Path 72" d="M0,0H10.427S25.848,21.2,25.848,43.881,10.427,90.709,10.427,90.709H0S15.752,66.558,15.752,43.881,0,0,0,0Z" transform="translate(6584.135 816.958)" fill="#ffa7a6"/>
    <path id="Path_73" data-name="Path 73" d="M0,0H10.427S33.542,26.918,33.542,55.707s-23.115,59.448-23.115,59.448H0S23.571,84.5,23.571,55.707,0,0,0,0Z" transform="translate(6596.535 804.735)" fill="#f15377"/>
    <path id="Path_74" data-name="Path 74" d="M16.269,0H58.483S46.9,8,50.731,24.076,73.82,64.294,73.82,64.294H0S19.021,40.15,23.088,24.076,16.269,0,16.269,0Z" transform="translate(6493 898.871) rotate(-90)" fill="#fa2e6a"/>
  </g>
</svg>
